<svg version="1.1" preserveAspectRatio="none" xmlns="http://www.w3.org/2000/svg" width="500" height="500" viewBox="0 0 500 500"><rect width="100%" height="100%" fill="#1A244D" fill-opacity="1"/><svg viewBox="564.6084 498.009 506.2566 142.4" width="333" height="93.66633442408455" x="83.5px" y="203.1668px" xmlns="http://www.w3.org/2000/svg" xmlns:xlink="http://www.w3.org/1999/xlink" preserveAspectRatio="none"><defs></defs><style>.background {fill:#1A244D;fill-opacity:1;}.icon1 {fill:#FFCC57;fill-opacity:1;}.icon1-str {stroke:#FFCC57;stroke-opacity:1;}.icon2 {fill:#3EA0C0;fill-opacity:1;}.icon3 {fill:#0AF9FF;fill-opacity:0.95;}.icon3-str {stroke:#0AF9FF;stroke-opacity:0.95;}</style><g opacity="1" transform="rotate(0 660.6082 498.009)">
<svg width="410.2568" height="100" x="660.6082" y="498.009" version="1.1" preserveAspectRatio="none" viewBox="0 0 410.2568 100">
  <defs><rect x="0" y="0" width="410.2568" height="100" rx="0px" ry="0px" id="id-B7crM0kCi1699205747783"></rect></defs><use class="icon1 icon3-str" style="stroke-width:0;" xlink:href="#id-B7crM0kCi1699205747783"></use>
</svg>
</g><g opacity="1" transform="rotate(0 654.7339 622.009)">
<svg width="326.0057" height="18.4" x="654.7339" y="622.009" version="1.1" preserveAspectRatio="none" viewBox="4.2 -30.28 678.24 38.28">
  <g transform="matrix(1 0 0 1 0 0)" class="icon1"><path id="id-6izo4zJp32" d="M23.96-24.52L8.20-24.52L8.20-14.76L22.24-14.76L22.24-11.32L8.20-11.32L8.20 0L4.20 0L4.20-28L23.96-28L23.96-24.52Z M38-21.40Q42.40-21.40 44.74-19.24Q47.08-17.08 47.08-12.80L47.08-12.80L47.08 0L43.44 0L43.44-2.80Q42.48-1.32 40.70-0.54Q38.92 0.24 36.48 0.24L36.48 0.24Q32.92 0.24 30.78-1.48Q28.64-3.20 28.64-6L28.64-6Q28.64-8.80 30.68-10.50Q32.72-12.20 37.16-12.20L37.16-12.20L43.24-12.20L43.24-12.96Q43.24-15.44 41.80-16.76Q40.36-18.08 37.56-18.08L37.56-18.08Q35.68-18.08 33.88-17.46Q32.08-16.84 30.84-15.80L30.84-15.80L29.24-18.68Q30.88-20 33.16-20.70Q35.44-21.40 38-21.40L38-21.40ZM37.12-2.72Q39.32-2.72 40.92-3.70Q42.52-4.68 43.24-6.48L43.24-6.48L43.24-9.44L37.32-9.44Q32.44-9.44 32.44-6.16L32.44-6.16Q32.44-4.56 33.68-3.64Q34.92-2.72 37.12-2.72L37.12-2.72Z M62.28 0.24Q59.68 0.24 57.28-0.46Q54.88-1.16 53.52-2.24L53.52-2.24L55.12-5.28Q56.52-4.28 58.52-3.68Q60.52-3.08 62.56-3.08L62.56-3.08Q67.60-3.08 67.60-5.96L67.60-5.96Q67.60-6.92 66.92-7.48Q66.24-8.04 65.22-8.30Q64.20-8.56 62.32-8.88L62.32-8.88Q59.76-9.28 58.14-9.80Q56.52-10.32 55.36-11.56Q54.20-12.80 54.20-15.04L54.20-15.04Q54.20-17.92 56.60-19.66Q59-21.40 63.04-21.40L63.04-21.40Q65.16-21.40 67.28-20.88Q69.40-20.36 70.76-19.48L70.76-19.48L69.12-16.44Q66.52-18.12 63-18.12L63-18.12Q60.56-18.12 59.28-17.32Q58-16.52 58-15.20L58-15.20Q58-14.16 58.72-13.56Q59.44-12.96 60.50-12.68Q61.56-12.40 63.48-12.04L63.48-12.04Q66.04-11.60 67.62-11.10Q69.20-10.60 70.32-9.40Q71.44-8.20 71.44-6.04L71.44-6.04Q71.44-3.16 68.98-1.46Q66.52 0.24 62.28 0.24L62.28 0.24Z M88.96-4L90.16-1.24Q89.32-0.52 88.08-0.14Q86.84 0.24 85.52 0.24L85.52 0.24Q82.32 0.24 80.56-1.48Q78.80-3.20 78.80-6.40L78.80-6.40L78.80-18.04L75.20-18.04L75.20-21.20L78.80-21.20L78.80-25.84L82.64-25.84L82.64-21.20L88.72-21.20L88.72-18.04L82.64-18.04L82.64-6.56Q82.64-4.84 83.50-3.92Q84.36-3 85.96-3L85.96-3Q87.72-3 88.96-4L88.96-4Z M98.16-5.24Q99.28-5.24 100.02-4.46Q100.76-3.68 100.76-2.52L100.76-2.52Q100.76-1.92 100.62-1.36Q100.48-0.80 100.08 0.36L100.08 0.36L98.20 5.92L95.68 5.92L97.16-0.04Q96.40-0.32 95.94-0.98Q95.48-1.64 95.48-2.52L95.48-2.52Q95.48-3.72 96.24-4.48Q97-5.24 98.16-5.24L98.16-5.24Z M144.68 0L140.32 0L134.28-8.60Q133.16-8.52 132.52-8.52L132.52-8.52L125.60-8.52L125.60 0L121.60 0L121.60-28L132.52-28Q137.96-28 141.08-25.40Q144.20-22.80 144.20-18.24L144.20-18.24Q144.20-15 142.60-12.72Q141-10.44 138.04-9.40L138.04-9.40L144.68 0ZM132.40-11.92Q136.20-11.92 138.20-13.56Q140.20-15.20 140.20-18.24L140.20-18.24Q140.20-21.28 138.20-22.90Q136.20-24.52 132.40-24.52L132.40-24.52L125.60-24.52L125.60-11.92L132.40-11.92Z M171.28-10.48Q171.28-10.04 171.20-9.32L171.20-9.32L154.00-9.32Q154.36-6.52 156.46-4.82Q158.56-3.12 161.68-3.12L161.68-3.12Q165.48-3.12 167.80-5.68L167.80-5.68L169.92-3.20Q168.48-1.52 166.34-0.64Q164.20 0.24 161.56 0.24L161.56 0.24Q158.20 0.24 155.60-1.14Q153.00-2.52 151.58-5Q150.16-7.48 150.16-10.60L150.16-10.60Q150.16-13.68 151.54-16.16Q152.92-18.64 155.34-20.02Q157.76-21.40 160.80-21.40L160.80-21.40Q163.84-21.40 166.22-20.02Q168.60-18.64 169.94-16.16Q171.28-13.68 171.28-10.48L171.28-10.48ZM160.80-18.16Q158.04-18.16 156.18-16.48Q154.32-14.80 154.00-12.08L154.00-12.08L167.60-12.08Q167.28-14.76 165.42-16.46Q163.56-18.16 160.80-18.16L160.80-18.16Z M178.60 0L178.60-29.68L182.44-29.68L182.44 0L178.60 0Z M191.76 0L191.76-21.20L195.60-21.20L195.60 0L191.76 0ZM193.68-25.28Q192.56-25.28 191.82-26Q191.08-26.72 191.08-27.76L191.08-27.76Q191.08-28.80 191.82-29.54Q192.56-30.28 193.68-30.28L193.68-30.28Q194.80-30.28 195.54-29.58Q196.28-28.88 196.28-27.84L196.28-27.84Q196.28-26.76 195.54-26.02Q194.80-25.28 193.68-25.28L193.68-25.28Z M212.64-21.40Q217.04-21.40 219.38-19.24Q221.72-17.08 221.72-12.80L221.72-12.80L221.72 0L218.08 0L218.08-2.80Q217.12-1.32 215.34-0.54Q213.56 0.24 211.12 0.24L211.12 0.24Q207.56 0.24 205.42-1.48Q203.28-3.20 203.28-6L203.28-6Q203.28-8.80 205.32-10.50Q207.36-12.20 211.80-12.20L211.80-12.20L217.88-12.20L217.88-12.96Q217.88-15.44 216.44-16.76Q215-18.08 212.20-18.08L212.20-18.08Q210.32-18.08 208.52-17.46Q206.72-16.84 205.48-15.80L205.48-15.80L203.88-18.68Q205.52-20 207.80-20.70Q210.08-21.40 212.64-21.40L212.64-21.40ZM211.76-2.72Q213.96-2.72 215.56-3.70Q217.16-4.68 217.88-6.48L217.88-6.48L217.88-9.44L211.96-9.44Q207.08-9.44 207.08-6.16L207.08-6.16Q207.08-4.56 208.32-3.64Q209.56-2.72 211.76-2.72L211.76-2.72Z M242.08-21.40Q245.16-21.40 247.60-20.04Q250.04-18.68 251.42-16.24Q252.80-13.80 252.80-10.60L252.80-10.60Q252.80-7.40 251.42-4.94Q250.04-2.48 247.60-1.12Q245.16 0.24 242.08 0.24L242.08 0.24Q239.72 0.24 237.76-0.68Q235.80-1.60 234.52-3.36L234.52-3.36L234.52 0L230.84 0L230.84-29.68L234.68-29.68L234.68-18Q235.96-19.68 237.88-20.54Q239.80-21.40 242.08-21.40L242.08-21.40ZM241.76-3.12Q243.80-3.12 245.42-4.06Q247.04-5 247.98-6.70Q248.92-8.40 248.92-10.60L248.92-10.60Q248.92-12.80 247.98-14.50Q247.04-16.20 245.42-17.12Q243.80-18.04 241.76-18.04L241.76-18.04Q239.76-18.04 238.12-17.12Q236.48-16.20 235.56-14.50Q234.64-12.80 234.64-10.60L234.64-10.60Q234.64-8.40 235.56-6.70Q236.48-5 238.12-4.06Q239.76-3.12 241.76-3.12L241.76-3.12Z M260.12 0L260.12-29.68L263.96-29.68L263.96 0L260.12 0Z M292.44-10.48Q292.44-10.04 292.36-9.32L292.36-9.32L275.16-9.32Q275.52-6.52 277.62-4.82Q279.72-3.12 282.84-3.12L282.84-3.12Q286.64-3.12 288.96-5.68L288.96-5.68L291.08-3.20Q289.64-1.52 287.50-0.64Q285.36 0.24 282.72 0.24L282.72 0.24Q279.36 0.24 276.76-1.14Q274.16-2.52 272.74-5Q271.32-7.48 271.32-10.60L271.32-10.60Q271.32-13.68 272.70-16.16Q274.08-18.64 276.50-20.02Q278.92-21.40 281.96-21.40L281.96-21.40Q285.00-21.40 287.38-20.02Q289.76-18.64 291.10-16.16Q292.44-13.68 292.44-10.48L292.44-10.48ZM281.96-18.16Q279.20-18.16 277.34-16.48Q275.48-14.80 275.16-12.08L275.16-12.08L288.76-12.08Q288.44-14.76 286.58-16.46Q284.72-18.16 281.96-18.16L281.96-18.16Z M313.08 0L313.08-28L324.88-28Q329.32-28 332.76-26.24Q336.20-24.48 338.10-21.30Q340.00-18.12 340.00-14L340.00-14Q340.00-9.88 338.10-6.70Q336.20-3.52 332.76-1.76Q329.32 0 324.88 0L324.88 0L313.08 0ZM317.08-3.48L324.64-3.48Q328.04-3.48 330.62-4.80Q333.20-6.12 334.60-8.50Q336.00-10.88 336.00-14L336.00-14Q336.00-17.12 334.60-19.50Q333.20-21.88 330.62-23.20Q328.04-24.52 324.64-24.52L324.64-24.52L317.08-24.52L317.08-3.48Z M366.72-10.48Q366.72-10.04 366.64-9.32L366.64-9.32L349.44-9.32Q349.80-6.52 351.90-4.82Q354.00-3.12 357.12-3.12L357.12-3.12Q360.92-3.12 363.24-5.68L363.24-5.68L365.36-3.20Q363.92-1.52 361.78-0.64Q359.64 0.24 357.00 0.24L357.00 0.24Q353.64 0.24 351.04-1.14Q348.44-2.52 347.02-5Q345.60-7.48 345.60-10.60L345.60-10.60Q345.60-13.68 346.98-16.16Q348.36-18.64 350.78-20.02Q353.20-21.40 356.24-21.40L356.24-21.40Q359.28-21.40 361.66-20.02Q364.04-18.64 365.38-16.16Q366.72-13.68 366.72-10.48L366.72-10.48ZM356.24-18.16Q353.48-18.16 351.62-16.48Q349.76-14.80 349.44-12.08L349.44-12.08L363.04-12.08Q362.72-14.76 360.86-16.46Q359.00-18.16 356.24-18.16L356.24-18.16Z M374.04 0L374.04-29.68L377.88-29.68L377.88 0L374.04 0Z M387.20 0L387.20-21.20L391.04-21.20L391.04 0L387.20 0ZM389.12-25.28Q388.00-25.28 387.26-26Q386.52-26.72 386.52-27.76L386.52-27.76Q386.52-28.80 387.26-29.54Q388.00-30.28 389.12-30.28L389.12-30.28Q390.24-30.28 390.98-29.58Q391.72-28.88 391.72-27.84L391.72-27.84Q391.72-26.76 390.98-26.02Q390.24-25.28 389.12-25.28L389.12-25.28Z M415.36-21.20L419.12-21.20L409.84 0L405.92 0L396.64-21.20L400.64-21.20L407.92-4.20L415.36-21.20Z M443.28-10.48Q443.28-10.04 443.20-9.32L443.20-9.32L426.00-9.32Q426.36-6.52 428.46-4.82Q430.56-3.12 433.68-3.12L433.68-3.12Q437.48-3.12 439.80-5.68L439.80-5.68L441.92-3.20Q440.48-1.52 438.34-0.64Q436.20 0.24 433.56 0.24L433.56 0.24Q430.20 0.24 427.60-1.14Q425.00-2.52 423.58-5Q422.16-7.48 422.16-10.60L422.16-10.60Q422.16-13.68 423.54-16.16Q424.92-18.64 427.34-20.02Q429.76-21.40 432.80-21.40L432.80-21.40Q435.84-21.40 438.22-20.02Q440.60-18.64 441.94-16.16Q443.28-13.68 443.28-10.48L443.28-10.48ZM432.80-18.16Q430.04-18.16 428.18-16.48Q426.32-14.80 426.00-12.08L426.00-12.08L439.60-12.08Q439.28-14.76 437.42-16.46Q435.56-18.16 432.80-18.16L432.80-18.16Z M454.28-17.64Q455.28-19.48 457.24-20.44Q459.20-21.40 462.00-21.40L462.00-21.40L462.00-17.68Q461.68-17.72 461.12-17.72L461.12-17.72Q458.00-17.72 456.22-15.86Q454.44-14 454.44-10.56L454.44-10.56L454.44 0L450.60 0L450.60-21.20L454.28-21.20L454.28-17.64Z M484.60-21.20L488.36-21.20L478.08 2.12Q476.72 5.36 474.90 6.68Q473.08 8 470.52 8L470.52 8Q468.96 8 467.50 7.50Q466.04 7 465.08 6.04L465.08 6.04L466.72 3.16Q468.36 4.72 470.52 4.72L470.52 4.72Q471.92 4.72 472.86 3.98Q473.80 3.24 474.56 1.44L474.56 1.44L475.24-0.04L465.88-21.20L469.88-21.20L477.28-4.24L484.60-21.20Z M515.44 0.32Q512.28 0.32 509.34-0.66Q506.40-1.64 504.72-3.20L504.72-3.20L506.20-6.32Q507.80-4.88 510.30-3.98Q512.80-3.08 515.44-3.08L515.44-3.08Q518.92-3.08 520.64-4.26Q522.36-5.44 522.36-7.40L522.36-7.40Q522.36-8.84 521.42-9.74Q520.48-10.64 519.10-11.12Q517.72-11.60 515.20-12.20L515.20-12.20Q512.04-12.96 510.10-13.72Q508.16-14.48 506.78-16.06Q505.40-17.64 505.40-20.32L505.40-20.32Q505.40-22.56 506.58-24.36Q507.76-26.16 510.16-27.24Q512.56-28.32 516.12-28.32L516.12-28.32Q518.60-28.32 521.00-27.68Q523.40-27.04 525.12-25.84L525.12-25.84L523.80-22.64Q522.04-23.76 520.04-24.34Q518.04-24.92 516.12-24.92L516.12-24.92Q512.72-24.92 511.02-23.68Q509.32-22.44 509.32-20.48L509.32-20.48Q509.32-19.04 510.28-18.14Q511.24-17.24 512.66-16.74Q514.08-16.24 516.52-15.68L516.52-15.68Q519.68-14.92 521.60-14.16Q523.52-13.40 524.90-11.84Q526.28-10.28 526.28-7.64L526.28-7.64Q526.28-5.44 525.08-3.62Q523.88-1.80 521.44-0.74Q519.00 0.32 515.44 0.32L515.44 0.32Z M542.64 0.24Q539.48 0.24 536.96-1.16Q534.44-2.56 533.02-5.02Q531.60-7.48 531.60-10.60L531.60-10.60Q531.60-13.72 533.02-16.18Q534.44-18.64 536.96-20.02Q539.48-21.40 542.64-21.40L542.64-21.40Q545.80-21.40 548.30-20.02Q550.80-18.64 552.22-16.18Q553.64-13.72 553.64-10.60L553.64-10.60Q553.64-7.48 552.22-5.02Q550.80-2.56 548.30-1.16Q545.80 0.24 542.64 0.24L542.64 0.24ZM542.64-3.12Q544.68-3.12 546.30-4.06Q547.92-5 548.84-6.70Q549.76-8.40 549.76-10.60L549.76-10.60Q549.76-12.80 548.84-14.50Q547.92-16.20 546.30-17.12Q544.68-18.04 542.64-18.04L542.64-18.04Q540.60-18.04 538.98-17.12Q537.36-16.20 536.42-14.50Q535.48-12.80 535.48-10.60L535.48-10.60Q535.48-8.40 536.42-6.70Q537.36-5 538.98-4.06Q540.60-3.12 542.64-3.12L542.64-3.12Z M560.96 0L560.96-29.68L564.80-29.68L564.80 0L560.96 0Z M590.04-21.20L593.88-21.20L593.88 0L590.24 0L590.24-3.20Q589.08-1.56 587.18-0.66Q585.28 0.24 583.04 0.24L583.04 0.24Q578.80 0.24 576.36-2.10Q573.92-4.44 573.92-9L573.92-9L573.92-21.20L577.76-21.20L577.76-9.44Q577.76-6.36 579.24-4.78Q580.72-3.20 583.48-3.20L583.48-3.20Q586.52-3.20 588.28-5.04Q590.04-6.88 590.04-10.24L590.04-10.24L590.04-21.20Z M613.92-4L615.12-1.24Q614.28-0.52 613.04-0.14Q611.80 0.24 610.48 0.24L610.48 0.24Q607.28 0.24 605.52-1.48Q603.76-3.20 603.76-6.40L603.76-6.40L603.76-18.04L600.16-18.04L600.16-21.20L603.76-21.20L603.76-25.84L607.60-25.84L607.60-21.20L613.68-21.20L613.68-18.04L607.60-18.04L607.60-6.56Q607.60-4.84 608.46-3.92Q609.32-3 610.92-3L610.92-3Q612.68-3 613.92-4L613.92-4Z M621.76 0L621.76-21.20L625.60-21.20L625.60 0L621.76 0ZM623.68-25.28Q622.56-25.28 621.82-26Q621.08-26.72 621.08-27.76L621.08-27.76Q621.08-28.80 621.82-29.54Q622.56-30.28 623.68-30.28L623.68-30.28Q624.80-30.28 625.54-29.58Q626.28-28.88 626.28-27.84L626.28-27.84Q626.28-26.76 625.54-26.02Q624.80-25.28 623.68-25.28L623.68-25.28Z M644.00 0.24Q640.84 0.24 638.32-1.16Q635.80-2.56 634.38-5.02Q632.96-7.48 632.96-10.60L632.96-10.60Q632.96-13.72 634.38-16.18Q635.80-18.64 638.32-20.02Q640.84-21.40 644.00-21.40L644.00-21.40Q647.16-21.40 649.66-20.02Q652.16-18.64 653.58-16.18Q655.00-13.72 655.00-10.60L655.00-10.60Q655.00-7.48 653.58-5.02Q652.16-2.56 649.66-1.16Q647.16 0.24 644.00 0.24L644.00 0.24ZM644.00-3.12Q646.04-3.12 647.66-4.06Q649.28-5 650.20-6.70Q651.12-8.40 651.12-10.60L651.12-10.60Q651.12-12.80 650.20-14.50Q649.28-16.20 647.66-17.12Q646.04-18.04 644.00-18.04L644.00-18.04Q641.96-18.04 640.34-17.12Q638.72-16.20 637.78-14.50Q636.84-12.80 636.84-10.60L636.84-10.60Q636.84-8.40 637.78-6.70Q638.72-5 640.34-4.06Q641.96-3.12 644.00-3.12L644.00-3.12Z M673.64-21.40Q677.68-21.40 680.06-19.06Q682.44-16.72 682.44-12.20L682.44-12.20L682.44 0L678.60 0L678.60-11.76Q678.60-14.84 677.12-16.40Q675.64-17.96 672.88-17.96L672.88-17.96Q669.76-17.96 667.96-16.14Q666.16-14.32 666.16-10.92L666.16-10.92L666.16 0L662.32 0L662.32-21.20L666.00-21.20L666.00-18Q667.16-19.64 669.14-20.52Q671.12-21.40 673.64-21.40L673.64-21.40Z"/></g>
</svg>
</g><g opacity="1" transform="rotate(0 690.6082 528.009)">
<svg width="350.2568" height="40" x="690.6082" y="528.009" version="1.1" preserveAspectRatio="none" viewBox="1.12 -31.48 343.6 39.24">
  <g transform="matrix(1 0 0 1 0 0)" class="background"><path id="id-D6z1nYkh16" d="M12.52 0.48Q9.20 0.48 6.10-0.42Q3-1.32 1.12-2.76L1.12-2.76L3.32-7.64Q5.12-6.32 7.60-5.52Q10.08-4.72 12.56-4.72L12.56-4.72Q15.32-4.72 16.64-5.54Q17.96-6.36 17.96-7.72L17.96-7.72Q17.96-8.72 17.18-9.38Q16.40-10.04 15.18-10.44Q13.96-10.84 11.88-11.32L11.88-11.32Q8.68-12.08 6.64-12.84Q4.60-13.60 3.14-15.28Q1.68-16.96 1.68-19.76L1.68-19.76Q1.68-22.20 3-24.18Q4.32-26.16 6.98-27.32Q9.64-28.48 13.48-28.48L13.48-28.48Q16.16-28.48 18.72-27.84Q21.28-27.20 23.20-26L23.20-26L21.20-21.08Q17.32-23.28 13.44-23.28L13.44-23.28Q10.72-23.28 9.42-22.40Q8.12-21.52 8.12-20.08L8.12-20.08Q8.12-18.64 9.62-17.94Q11.12-17.24 14.20-16.56L14.20-16.56Q17.40-15.80 19.44-15.04Q21.48-14.28 22.94-12.64Q24.40-11 24.40-8.20L24.40-8.20Q24.40-5.80 23.06-3.82Q21.72-1.84 19.04-0.68Q16.36 0.48 12.52 0.48L12.52 0.48Z M44.44 0L37.64-8.44L34.64-5.48L34.64 0L28.40 0L28.40-29.68L34.64-29.68L34.64-12.88L43.76-21.52L51.20-21.52L42.24-12.40L52 0L44.44 0Z M54.64 0L54.64-21.52L60.88-21.52L60.88 0L54.64 0ZM57.76-24.52Q56.04-24.52 54.96-25.52Q53.88-26.52 53.88-28L53.88-28Q53.88-29.48 54.96-30.48Q56.04-31.48 57.76-31.48L57.76-31.48Q59.48-31.48 60.56-30.52Q61.64-29.56 61.64-28.12L61.64-28.12Q61.64-26.56 60.56-25.54Q59.48-24.52 57.76-24.52L57.76-24.52Z M79.40-21.84Q82.40-21.84 84.86-20.46Q87.32-19.08 88.72-16.58Q90.12-14.08 90.12-10.76L90.12-10.76Q90.12-7.44 88.72-4.94Q87.32-2.44 84.86-1.06Q82.40 0.32 79.40 0.32L79.40 0.32Q75.28 0.32 72.92-2.28L72.92-2.28L72.92 7.76L66.68 7.76L66.68-21.52L72.64-21.52L72.64-19.04Q74.96-21.84 79.40-21.84L79.40-21.84ZM78.32-4.80Q80.72-4.80 82.26-6.42Q83.80-8.04 83.80-10.76L83.80-10.76Q83.80-13.48 82.26-15.10Q80.72-16.72 78.32-16.72L78.32-16.72Q75.92-16.72 74.38-15.10Q72.84-13.48 72.84-10.76L72.84-10.76Q72.84-8.04 74.38-6.42Q75.92-4.80 78.32-4.80L78.32-4.80Z M111.84 0L111.84-22.72L102.88-22.72L102.88-28L127.28-28L127.28-22.72L118.32-22.72L118.32 0L111.84 0Z M143.40-21.84Q147.40-21.84 149.86-19.44Q152.32-17.04 152.32-12.32L152.32-12.32L152.32 0L146.08 0L146.08-11.36Q146.08-13.92 144.96-15.18Q143.84-16.44 141.72-16.44L141.72-16.44Q139.36-16.44 137.96-14.98Q136.56-13.52 136.56-10.64L136.56-10.64L136.56 0L130.32 0L130.32-29.68L136.56-29.68L136.56-19.28Q137.80-20.52 139.56-21.18Q141.32-21.84 143.40-21.84L143.40-21.84Z M179.28-10.68Q179.28-10.56 179.16-9L179.16-9L162.88-9Q163.32-7 164.96-5.84Q166.60-4.68 169.04-4.68L169.04-4.68Q170.72-4.68 172.02-5.18Q173.32-5.68 174.44-6.76L174.44-6.76L177.76-3.16Q174.72 0.32 168.88 0.32L168.88 0.32Q165.24 0.32 162.44-1.10Q159.64-2.52 158.12-5.04Q156.60-7.56 156.60-10.76L156.60-10.76Q156.60-13.92 158.10-16.46Q159.60-19 162.22-20.42Q164.84-21.84 168.08-21.84L168.08-21.84Q171.24-21.84 173.80-20.48Q176.36-19.12 177.82-16.58Q179.28-14.04 179.28-10.68L179.28-10.68ZM168.12-17.12Q166-17.12 164.56-15.92Q163.12-14.72 162.80-12.64L162.80-12.64L173.40-12.64Q173.08-14.68 171.64-15.90Q170.20-17.12 168.12-17.12L168.12-17.12Z M208.60 0.48Q204.32 0.48 200.86-1.38Q197.40-3.24 195.42-6.54Q193.44-9.84 193.44-14L193.44-14Q193.44-18.16 195.42-21.46Q197.40-24.76 200.86-26.62Q204.32-28.48 208.64-28.48L208.64-28.48Q212.28-28.48 215.22-27.20Q218.16-25.92 220.16-23.52L220.16-23.52L216-19.68Q213.16-22.96 208.96-22.96L208.96-22.96Q206.36-22.96 204.32-21.82Q202.28-20.68 201.14-18.64Q200-16.60 200-14L200-14Q200-11.40 201.14-9.36Q202.28-7.32 204.32-6.18Q206.36-5.04 208.96-5.04L208.96-5.04Q213.16-5.04 216-8.36L216-8.36L220.16-4.52Q218.16-2.08 215.20-0.80Q212.24 0.48 208.60 0.48L208.60 0.48Z M233.56 0.32Q230.16 0.32 227.46-1.10Q224.76-2.52 223.24-5.04Q221.72-7.56 221.72-10.76L221.72-10.76Q221.72-13.96 223.24-16.48Q224.76-19 227.46-20.42Q230.16-21.84 233.56-21.84L233.56-21.84Q236.96-21.84 239.64-20.42Q242.32-19 243.84-16.48Q245.36-13.96 245.36-10.76L245.36-10.76Q245.36-7.56 243.84-5.04Q242.32-2.52 239.64-1.10Q236.96 0.32 233.56 0.32L233.56 0.32ZM233.56-4.80Q235.96-4.80 237.50-6.42Q239.04-8.04 239.04-10.76L239.04-10.76Q239.04-13.48 237.50-15.10Q235.96-16.72 233.56-16.72L233.56-16.72Q231.16-16.72 229.60-15.10Q228.04-13.48 228.04-10.76L228.04-10.76Q228.04-8.04 229.60-6.42Q231.16-4.80 233.56-4.80L233.56-4.80Z M264.96-21.52L271.20-21.52L271.20 0L265.28 0L265.28-2.56Q264.04-1.16 262.32-0.42Q260.60 0.32 258.60 0.32L258.60 0.32Q254.36 0.32 251.88-2.12Q249.40-4.56 249.40-9.36L249.40-9.36L249.40-21.52L255.64-21.52L255.64-10.28Q255.64-5.08 260-5.08L260-5.08Q262.24-5.08 263.60-6.54Q264.96-8 264.96-10.88L264.96-10.88L264.96-21.52Z M282.96-18.68Q284.08-20.24 285.98-21.04Q287.88-21.84 290.36-21.84L290.36-21.84L290.36-16.08Q289.32-16.16 288.96-16.16L288.96-16.16Q286.28-16.16 284.76-14.66Q283.24-13.16 283.24-10.16L283.24-10.16L283.24 0L277 0L277-21.52L282.96-21.52L282.96-18.68Z M294.08 0L294.08-21.52L300.32-21.52L300.32 0L294.08 0ZM297.20-24.52Q295.48-24.52 294.40-25.52Q293.32-26.52 293.32-28L293.32-28Q293.32-29.48 294.40-30.48Q295.48-31.48 297.20-31.48L297.20-31.48Q298.92-31.48 300-30.52Q301.08-29.56 301.08-28.12L301.08-28.12Q301.08-26.56 300-25.54Q298.92-24.52 297.20-24.52L297.20-24.52Z M327.20-10.68Q327.20-10.56 327.08-9L327.08-9L310.80-9Q311.24-7 312.88-5.84Q314.52-4.68 316.96-4.68L316.96-4.68Q318.64-4.68 319.94-5.18Q321.24-5.68 322.36-6.76L322.36-6.76L325.68-3.16Q322.64 0.32 316.80 0.32L316.80 0.32Q313.16 0.32 310.36-1.10Q307.56-2.52 306.04-5.04Q304.52-7.56 304.52-10.76L304.52-10.76Q304.52-13.92 306.02-16.46Q307.52-19 310.14-20.42Q312.76-21.84 316-21.84L316-21.84Q319.16-21.84 321.72-20.48Q324.28-19.12 325.74-16.58Q327.20-14.04 327.20-10.68L327.20-10.68ZM316.04-17.12Q313.92-17.12 312.48-15.92Q311.04-14.72 310.72-12.64L310.72-12.64L321.32-12.64Q321-14.68 319.56-15.90Q318.12-17.12 316.04-17.12L316.04-17.12Z M337.32-18.68Q338.44-20.24 340.34-21.04Q342.24-21.84 344.72-21.84L344.72-21.84L344.72-16.08Q343.68-16.16 343.32-16.16L343.32-16.16Q340.64-16.16 339.12-14.66Q337.60-13.16 337.60-10.16L337.60-10.16L337.60 0L331.36 0L331.36-21.52L337.32-21.52L337.32-18.68Z"/></g>
</svg>
</g><g opacity="1" transform="rotate(0 564.6084 498.009)">
<svg width="99.9998" height="100" x="564.6084" y="498.009" version="1.1" preserveAspectRatio="none" viewBox="0 0 99.9998 100">
  <defs><rect x="1.9999959999999999" y="1.9999959999999999" width="95.99980799999999" height="96.000008" rx="0px" ry="0px" id="id-tBXipXk0b1699205747783"></rect></defs><use class="background icon1-str" style="stroke-width:3.9999919999999998;" xlink:href="#id-tBXipXk0b1699205747783"></use>
</svg>
</g><g opacity="1" transform="rotate(0 584.6084 529.0873)">
<svg width="59.9998" height="37.8434" x="584.6084" y="529.0873" version="1.1" preserveAspectRatio="none" viewBox="0.25999999046325684 12 63.43000030517578 40.00697708129883">
  <g transform="matrix(1 0 0 1 0 0)" class="icon1"><title>Payment &amp; Delivery - Expanded - 30 Set - 64 Pixel</title><path d="M1.26,16.5H23l-.8,4.3H4.18a1,1,0,1,0,0,2H21.86l-1,5.56H7.12a1,1,0,1,0,0,2H20.45l-1,5.56H10a1,1,0,0,0,0,2h9l-1,5.56H13a1,1,0,1,0,0,2h4.64l-1.18,6.3H44.8a.84.84,0,0,0,.43.22.65.65,0,0,0,.19,0,1,1,0,0,0,.64-.24H56.23L63.69,12H23.89l-.47,2.52H1.26a1,1,0,0,0,0,2ZM39.71,14h8.9L47,22.68h-8.9Zm-2,0-2,10.7h13l2-10.7H61.28l-6.71,35.8h-7.9L48,43l1.67,3.16a1,1,0,1,0,1.77-.93l-3.68-7L41.6,45a1,1,0,0,0,1.49,1.34l2.76-3.07-1.22,6.51H18.84L25.55,14Z"></path></g>
</svg>
</g></svg></svg>